<svg xmlns="http://www.w3.org/2000/svg" width="16" height="16" viewBox="0 0 16 16">
  <path fill="currentColor" d="M8 4.5a3.5 3.5 0 1 0 0 7 3.5 3.5 0 0 0 0-7zM8 0a1 1 0 0 1 1 1v2a1 1 0 0 1-2 0V1a1 1 0 0 1 1-1zm0 13a1 1 0 0 1 1 1v2a1 1 0 0 1-2 0v-2a1 1 0 0 1 1-1zm5.66-10.66a1 1 0 0 1 0 1.41l-1.41 1.41a1 1 0 0 1-1.41-1.41l1.41-1.41a1 1 0 0 1 1.41 0zm-8.49 8.49a1 1 0 0 1 0 1.41l-1.41 1.41a1 1 0 0 1-1.41-1.41l1.41-1.41a1 1 0 0 1 1.41 0zM16 8a1 1 0 0 1-1 1h-2a1 1 0 0 1 0-2h2a1 1 0 0 1 1 1zM3 8a1 1 0 0 1-1 1H0a1 1 0 0 1 0-2h2a1 1 0 0 1 1 1zm10.66 5.66a1 1 0 0 1-1.41 0l-1.41-1.41a1 1 0 0 1 1.41-1.41l1.41 1.41a1 1 0 0 1 0 1.41zm-8.49-8.49a1 1 0 0 1-1.41 0L2.34 3.76a1 1 0 0 1 1.41-1.41l1.41 1.41a1 1 0 0 1 0 1.41z"/>
</svg>
